<svg xmlns="http://www.w3.org/2000/svg" width="44.009" height="15.57" viewBox="0 0 44.009 15.57">
  <g id="그룹_6" data-name="그룹 6" transform="translate(-482.293 -1688.79)">
    <path id="패스_2" data-name="패스 2" d="M6.557-13.869Q5.8-11.777,4.219-7.787,2.408-3.27.879.281a.534.534,0,0,0,.07.58,1.266,1.266,0,0,0,.527.4,1.071,1.071,0,0,0,.65.07.638.638,0,0,0,.457-.4q.668-2,2.707-7.154,2.2-5.537,2.936-6.979a.432.432,0,0,0-.018-.51,1.344,1.344,0,0,0-.527-.387A1.468,1.468,0,0,0,7-14.2.487.487,0,0,0,6.557-13.869Z" transform="translate(492 1703)"/>
    <path id="패스_1" data-name="패스 1" d="M1.6-2.578a1.124,1.124,0,0,1-.2.8.665.665,0,0,1-.547.117.344.344,0,0,0-.41.215A1.3,1.3,0,0,0,.313-.82a1.191,1.191,0,0,0,.137.605A.371.371,0,0,0,.859.02Q1.875-.059,3.027-.059q1.387-.02,2.6.078a3.918,3.918,0,0,0,2.93-1.074A4.039,4.039,0,0,0,9.629-4.043a4.1,4.1,0,0,0-.605-2.363,2.947,2.947,0,0,0-1.68-1.133,2.417,2.417,0,0,0,1.172-1,4.137,4.137,0,0,0,.43-2.09A3.721,3.721,0,0,0,7.93-13.379a3.71,3.71,0,0,0-2.715-.977q-1.016.078-2.422.059-1.23,0-1.934-.059a.406.406,0,0,0-.43.215,1.191,1.191,0,0,0-.137.605,1.26,1.26,0,0,0,.137.605.438.438,0,0,0,.43.254,1.025,1.025,0,0,1,.566.1.73.73,0,0,1,.176.586ZM3.4-6.562H4.59a3.839,3.839,0,0,1,2.461.645,2.266,2.266,0,0,1,.7,1.816,2.3,2.3,0,0,1-.84,1.914,2.1,2.1,0,0,1-1.348.527H3.4Zm0-6.113H5.137a1.915,1.915,0,0,1,1.348.449,2.1,2.1,0,0,1,.586,1.641,2.537,2.537,0,0,1-.547,1.7A1.746,1.746,0,0,1,5.1-8.242H3.4ZM23.684-.723a1.462,1.462,0,0,0,.156.41.481.481,0,0,0,.254.273l.273.059L24.856,0q.586-.02.859-.02.449,0,.84.039A.4.4,0,0,0,27-.2,1.191,1.191,0,0,0,27.141-.8,1.3,1.3,0,0,0,27-1.426a.438.438,0,0,0-.449-.234l-.215.02a1.277,1.277,0,0,1-.605.039q-.176-.078-.176-.469V-7.3a3.179,3.179,0,0,0-1.289-2.773,4.286,4.286,0,0,0-2.5-.7,5.714,5.714,0,0,0-1.992.313,4.985,4.985,0,0,0-1.7,1.152.854.854,0,0,0-.293.645.933.933,0,0,0,.234.625.77.77,0,0,0,.547.293.884.884,0,0,0,.664-.273,3.6,3.6,0,0,1,1.152-.859A3.734,3.734,0,0,1,21.77-9.1a1.881,1.881,0,0,1,1.582.605,2.628,2.628,0,0,1,.41,1.621,5.226,5.226,0,0,0-1.133-.137q-.684-.039-1.172-.039a3.967,3.967,0,0,0-2.676.957,3.653,3.653,0,0,0-1.191,2.852,3.714,3.714,0,0,0,.9,2.617,3.2,3.2,0,0,0,2.48.977A4.239,4.239,0,0,0,22.552.078,2.269,2.269,0,0,0,23.684-.723Zm.078-2.3a2.874,2.874,0,0,1-1.035,1.172,3.07,3.07,0,0,1-1.758.527,1.333,1.333,0,0,1-1.055-.547,2.083,2.083,0,0,1-.449-1.367,2.019,2.019,0,0,1,.566-1.426,2.378,2.378,0,0,1,1.816-.7q.332,0,.918.039a9.245,9.245,0,0,1,1,.137Zm6.686-7.754a3.8,3.8,0,0,0-2.871,1.016,3.056,3.056,0,0,0-.8,2.168A2.757,2.757,0,0,0,28.32-4.98a5.646,5.646,0,0,0,2.656.566A2.72,2.72,0,0,1,32.616-4a1.306,1.306,0,0,1,.547,1.133A1.291,1.291,0,0,1,32.6-1.738a3.074,3.074,0,0,1-1.758.41,2.816,2.816,0,0,1-1.855-.527,1.911,1.911,0,0,1-.625-1.7q.039-.254-.293-.391a1.4,1.4,0,0,0-.684-.078,1.291,1.291,0,0,0-.664.215.4.4,0,0,0-.156.508,8.118,8.118,0,0,1,.156,1.484,6.214,6.214,0,0,1-.137,1.426.427.427,0,0,0,.156.508,1.228,1.228,0,0,0,.625.215,1.725,1.725,0,0,0,.664-.078q.332-.117.332-.312-.02-.234.117-.234a3.8,3.8,0,0,1,.449.156,7.075,7.075,0,0,0,.82.313,4.392,4.392,0,0,0,1.23.176A4.627,4.627,0,0,0,34.12-.566a2.931,2.931,0,0,0,.918-2.3A3.019,3.019,0,0,0,34-5.391a4.086,4.086,0,0,0-2.539-.7,4.127,4.127,0,0,1-2.148-.449,1.2,1.2,0,0,1-.664-1.074,1.355,1.355,0,0,1,.527-1.133A2.2,2.2,0,0,1,30.488-9.1a2.607,2.607,0,0,1,1.719.469,2.018,2.018,0,0,1,.547,1.465q-.039.273.293.43a1.565,1.565,0,0,0,.723.078,1.382,1.382,0,0,0,.664-.215.41.41,0,0,0,.176-.488,5.091,5.091,0,0,1-.2-1.328,4.118,4.118,0,0,1,.2-1.465q.1-.215-.176-.391a1.768,1.768,0,0,0-.625-.2,1.858,1.858,0,0,0-.7-.02q-.313.059-.312.254.02.234-.1.254a1.571,1.571,0,0,1-.41-.117,5.062,5.062,0,0,0-.762-.273A4.263,4.263,0,0,0,30.448-10.781Zm5.377-1.328v10q0,.391-.117.469-.059.039-.293-.02L35.3-1.68a.365.365,0,0,0-.449.2,1.191,1.191,0,0,0-.137.605,1.3,1.3,0,0,0,.137.625A.418.418,0,0,0,35.3,0q.566-.059,1.445-.059.781,0,1.387.059a.438.438,0,0,0,.449-.234,1.072,1.072,0,0,0,.156-.605,1.111,1.111,0,0,0-.156-.625.4.4,0,0,0-.449-.215l-.117.02a.32.32,0,0,1-.273,0q-.117-.078-.117-.449v-5.7a2.307,2.307,0,0,1,.918-.977A2.749,2.749,0,0,1,39.888-9.1a1.163,1.163,0,0,1,.859.332,1.9,1.9,0,0,1,.41,1.348v5.313q0,.352-.117.449a.76.76,0,0,1-.332.02l-.234-.02a.473.473,0,0,0-.488.234,1.26,1.26,0,0,0-.137.605,1.072,1.072,0,0,0,.156.605.455.455,0,0,0,.469.234q.8-.078,1.68-.078A12.283,12.283,0,0,1,43.619.02a.511.511,0,0,0,.508-.234A1.071,1.071,0,0,0,44.3-.84a1.017,1.017,0,0,0-.176-.625.446.446,0,0,0-.508-.2l-.234.02q-.273.059-.332,0a.728.728,0,0,1-.1-.469V-7.676a3.176,3.176,0,0,0-.82-2.4,3.2,3.2,0,0,0-2.246-.7,3.356,3.356,0,0,0-1.23.254,2.133,2.133,0,0,0-1.035.723v-4.57a10.183,10.183,0,0,1-1.465.117,2.914,2.914,0,0,1-.859-.117.42.42,0,0,0-.449.234,1.191,1.191,0,0,0-.137.605,1.148,1.148,0,0,0,.137.586.453.453,0,0,0,.449.254q.254-.1.371.02A.8.8,0,0,1,35.826-12.109Z" transform="translate(482 1704)"/>
  </g>
</svg>
